G04 EAGLE Gerber RS-274X export*
G75*
%MOMM*%
%FSLAX34Y34*%
%LPD*%
%INBottom Copper*%
%IPPOS*%
%AMOC8*
5,1,8,0,0,1.08239X$1,22.5*%
G01*
%ADD10P,1.924489X8X202.500000*%
%ADD11R,1.778000X1.778000*%
%ADD12C,1.500000*%
%ADD13R,1.524000X1.524000*%
%ADD14P,1.649562X8X202.500000*%
%ADD15C,3.327400*%
%ADD16C,4.445000*%
%ADD17C,1.016000*%


D10*
X190500Y431800D03*
D11*
X190500Y406400D03*
D10*
X190500Y457200D03*
D12*
X89900Y152000D03*
X89900Y102000D03*
X214900Y152000D03*
X214900Y102000D03*
X283575Y152000D03*
X283575Y102000D03*
X408575Y152000D03*
X408575Y102000D03*
X1042400Y152000D03*
X1042400Y102000D03*
X1167400Y152000D03*
X1167400Y102000D03*
X851900Y152000D03*
X851900Y102000D03*
X976900Y152000D03*
X976900Y102000D03*
D13*
X1147400Y663200D03*
D14*
X1147400Y637800D03*
X1122000Y663200D03*
X1122000Y637800D03*
X1096600Y663200D03*
X1096600Y637800D03*
X1071200Y663200D03*
X1071200Y637800D03*
X1045800Y663200D03*
X1045800Y637800D03*
X1020400Y663200D03*
X1020400Y637800D03*
X995000Y663200D03*
X995000Y637800D03*
X969600Y663200D03*
X969600Y637800D03*
X944200Y663200D03*
X944200Y637800D03*
X918800Y663200D03*
X918800Y637800D03*
X893400Y663200D03*
X893400Y637800D03*
X868000Y663200D03*
X868000Y637800D03*
X842600Y663200D03*
X842600Y637800D03*
X817200Y663200D03*
X817200Y637800D03*
X791800Y663200D03*
X791800Y637800D03*
X766400Y663200D03*
X766400Y637800D03*
X741000Y663200D03*
X741000Y637800D03*
X715600Y663200D03*
X715600Y637800D03*
D13*
X1147400Y409200D03*
D14*
X1147400Y383800D03*
X1122000Y409200D03*
X1122000Y383800D03*
X1096600Y409200D03*
X1096600Y383800D03*
X1071200Y409200D03*
X1071200Y383800D03*
X1045800Y409200D03*
X1045800Y383800D03*
X1020400Y409200D03*
X1020400Y383800D03*
X995000Y409200D03*
X995000Y383800D03*
X969600Y409200D03*
X969600Y383800D03*
X944200Y409200D03*
X944200Y383800D03*
X918800Y409200D03*
X918800Y383800D03*
X893400Y409200D03*
X893400Y383800D03*
X868000Y409200D03*
X868000Y383800D03*
X842600Y409200D03*
X842600Y383800D03*
X817200Y409200D03*
X817200Y383800D03*
X791800Y409200D03*
X791800Y383800D03*
X766400Y409200D03*
X766400Y383800D03*
X741000Y409200D03*
X741000Y383800D03*
X715600Y409200D03*
X715600Y383800D03*
D12*
X661400Y152000D03*
X661400Y102000D03*
X786400Y152000D03*
X786400Y102000D03*
X470900Y152000D03*
X470900Y102000D03*
X595900Y152000D03*
X595900Y102000D03*
D15*
X495300Y569341D03*
X495300Y700659D03*
D16*
X48260Y45720D03*
X48260Y454660D03*
X1216660Y711200D03*
X1216660Y53340D03*
D17*
X149860Y457200D03*
X301625Y355600D03*
X637540Y604520D03*
X127000Y254000D03*
X320675Y254000D03*
X1079500Y254000D03*
X889000Y254000D03*
X698500Y254000D03*
X508000Y254000D03*
X320675Y358775D03*
M02*
