M48
;GenerationSoftware,Autodesk,EAGLE,9.5.1*%
;CreationDate,2019-12-21T03:50:40Z*%
FMAT,2
ICI,OFF
METRIC,TZ,000.000
T6C0.600
T5C0.610
T4C0.813
T3C0.889
T2C2.311
T1C3.175
%
G90
M71
T1
X121666Y5334
X121666Y71120
X4826Y45466
X4826Y4572
T2
X49530Y70066
X49530Y56934
T3
X79180Y66320
X74100Y66320
X71560Y38380
X71560Y40920
X96960Y38380
X96960Y40920
X99500Y38380
X74100Y38380
X74100Y40920
X76640Y38380
X76640Y40920
X79180Y38380
X79180Y40920
X81720Y38380
X81720Y40920
X84260Y38380
X84260Y40920
X86800Y38380
X86800Y40920
X89340Y38380
X89340Y40920
X91880Y38380
X91880Y40920
X114740Y66320
X114740Y63780
X112200Y66320
X112200Y63780
X109660Y66320
X109660Y63780
X107120Y66320
X107120Y63780
X104580Y66320
X104580Y63780
X102040Y66320
X102040Y63780
X99500Y66320
X99500Y63780
X96960Y66320
X96960Y63780
X94420Y66320
X94420Y63780
X91880Y66320
X91880Y63780
X89340Y66320
X89340Y63780
X86800Y66320
X86800Y63780
X84260Y66320
X84260Y63780
X81720Y66320
X81720Y63780
X94420Y38380
X79180Y63780
X76640Y66320
X76640Y63780
X94420Y40920
X74100Y63780
X71560Y66320
X71560Y63780
X114740Y40920
X114740Y38380
X112200Y40920
X112200Y38380
X109660Y40920
X109660Y38380
X107120Y40920
X107120Y38380
X104580Y40920
X104580Y38380
X102040Y40920
X102040Y38380
X99500Y40920
T4
X19050Y45720
X19050Y40640
X19050Y43180
T5
X69850Y25400
X88900Y25400
X30162Y35560
X63754Y60452
X12700Y25400
X32067Y25400
X107950Y25400
X50800Y25400
X32067Y35878
X14986Y45720
T6
X40858Y10200
X40858Y15200
X28357Y10200
X28357Y15200
X21490Y10200
X21490Y15200
X8990Y10200
X104240Y15200
X104240Y10200
X116740Y15200
X66140Y15200
X66140Y10200
X78640Y15200
X78640Y10200
X47090Y15200
X47090Y10200
X59590Y15200
X59590Y10200
X116740Y10200
X85190Y15200
X85190Y10200
X97690Y15200
X97690Y10200
X8990Y15200
M30