G04 EAGLE Gerber RS-274X export*
G75*
%MOMM*%
%FSLAX34Y34*%
%LPD*%
%INTop Copper*%
%IPPOS*%
%AMOC8*
5,1,8,0,0,1.08239X$1,22.5*%
G01*
%ADD10P,1.924489X8X202.500000*%
%ADD11R,1.778000X1.778000*%
%ADD12R,0.949959X1.031241*%
%ADD13C,1.500000*%
%ADD14R,1.524000X1.524000*%
%ADD15P,1.649562X8X202.500000*%
%ADD16R,0.355600X1.320800*%
%ADD17C,3.327400*%
%ADD18R,3.000000X0.900000*%
%ADD19C,1.016000*%
%ADD20C,4.445000*%
%ADD21C,0.508000*%
%ADD22C,0.381000*%
%ADD23C,0.254000*%
%ADD24C,0.152400*%

G36*
X1107506Y648343D02*
X1107506Y648343D01*
X1107573Y648340D01*
X1107700Y648362D01*
X1107828Y648376D01*
X1107891Y648396D01*
X1107957Y648407D01*
X1108076Y648455D01*
X1108199Y648494D01*
X1108257Y648526D01*
X1108319Y648551D01*
X1108426Y648622D01*
X1108539Y648685D01*
X1108589Y648729D01*
X1108645Y648765D01*
X1108736Y648856D01*
X1108833Y648941D01*
X1108873Y648994D01*
X1108920Y649041D01*
X1108990Y649149D01*
X1109068Y649252D01*
X1109096Y649312D01*
X1109133Y649368D01*
X1109180Y649488D01*
X1109235Y649604D01*
X1109251Y649669D01*
X1109275Y649731D01*
X1109287Y649817D01*
X1109327Y649983D01*
X1109332Y650153D01*
X1109344Y650240D01*
X1109344Y656978D01*
X1109341Y657011D01*
X1109343Y657044D01*
X1109321Y657204D01*
X1109304Y657365D01*
X1109294Y657397D01*
X1109290Y657430D01*
X1109235Y657583D01*
X1109186Y657737D01*
X1109170Y657766D01*
X1109159Y657797D01*
X1109075Y657935D01*
X1108995Y658076D01*
X1108973Y658102D01*
X1108956Y658130D01*
X1108845Y658248D01*
X1108739Y658370D01*
X1108712Y658390D01*
X1108690Y658415D01*
X1108557Y658508D01*
X1108428Y658605D01*
X1108398Y658620D01*
X1108371Y658639D01*
X1108222Y658703D01*
X1108076Y658772D01*
X1108044Y658780D01*
X1108013Y658794D01*
X1107854Y658826D01*
X1107697Y658864D01*
X1107664Y658865D01*
X1107631Y658872D01*
X1107469Y658872D01*
X1107307Y658877D01*
X1107275Y658871D01*
X1107241Y658871D01*
X1107083Y658838D01*
X1106923Y658810D01*
X1106893Y658798D01*
X1106860Y658791D01*
X1106711Y658726D01*
X1106561Y658667D01*
X1106533Y658649D01*
X1106503Y658635D01*
X1106436Y658585D01*
X1106236Y658452D01*
X1106152Y658368D01*
X1106094Y658324D01*
X1100809Y653039D01*
X1098822Y653039D01*
X1098822Y662882D01*
X1098815Y662948D01*
X1098817Y663015D01*
X1098795Y663142D01*
X1098789Y663198D01*
X1098804Y663261D01*
X1098810Y663431D01*
X1098822Y663518D01*
X1098822Y673361D01*
X1100809Y673361D01*
X1106094Y668076D01*
X1106119Y668055D01*
X1106141Y668030D01*
X1106270Y667932D01*
X1106396Y667830D01*
X1106425Y667815D01*
X1106452Y667795D01*
X1106598Y667725D01*
X1106742Y667651D01*
X1106774Y667642D01*
X1106804Y667628D01*
X1106961Y667589D01*
X1107117Y667546D01*
X1107151Y667543D01*
X1107183Y667536D01*
X1107345Y667530D01*
X1107506Y667519D01*
X1107539Y667524D01*
X1107573Y667523D01*
X1107732Y667551D01*
X1107892Y667573D01*
X1107924Y667584D01*
X1107957Y667590D01*
X1108107Y667649D01*
X1108260Y667704D01*
X1108288Y667721D01*
X1108319Y667733D01*
X1108454Y667822D01*
X1108592Y667907D01*
X1108617Y667929D01*
X1108645Y667948D01*
X1108759Y668062D01*
X1108877Y668173D01*
X1108896Y668200D01*
X1108920Y668224D01*
X1109008Y668359D01*
X1109101Y668492D01*
X1109114Y668522D01*
X1109133Y668550D01*
X1109192Y668701D01*
X1109256Y668849D01*
X1109263Y668882D01*
X1109275Y668913D01*
X1109286Y668996D01*
X1109335Y669231D01*
X1109334Y669350D01*
X1109344Y669422D01*
X1109344Y749173D01*
X1109337Y749239D01*
X1109340Y749306D01*
X1109318Y749433D01*
X1109304Y749561D01*
X1109284Y749624D01*
X1109273Y749690D01*
X1109225Y749809D01*
X1109186Y749932D01*
X1109154Y749990D01*
X1109129Y750052D01*
X1109058Y750159D01*
X1108995Y750272D01*
X1108951Y750322D01*
X1108915Y750378D01*
X1108824Y750469D01*
X1108739Y750566D01*
X1108686Y750606D01*
X1108639Y750653D01*
X1108531Y750723D01*
X1108428Y750801D01*
X1108368Y750829D01*
X1108312Y750866D01*
X1108192Y750913D01*
X1108076Y750968D01*
X1108011Y750984D01*
X1107949Y751008D01*
X1107863Y751020D01*
X1107697Y751060D01*
X1107527Y751065D01*
X1107440Y751077D01*
X607060Y751077D01*
X606994Y751070D01*
X606927Y751073D01*
X606800Y751051D01*
X606672Y751037D01*
X606609Y751017D01*
X606543Y751006D01*
X606424Y750958D01*
X606301Y750919D01*
X606243Y750887D01*
X606181Y750862D01*
X606074Y750791D01*
X605961Y750728D01*
X605911Y750684D01*
X605856Y750648D01*
X605764Y750557D01*
X605667Y750472D01*
X605627Y750419D01*
X605580Y750372D01*
X605510Y750264D01*
X605432Y750161D01*
X605404Y750101D01*
X605367Y750045D01*
X605320Y749925D01*
X605265Y749809D01*
X605249Y749744D01*
X605225Y749682D01*
X605213Y749596D01*
X605173Y749430D01*
X605168Y749260D01*
X605156Y749173D01*
X605156Y677544D01*
X508000Y677544D01*
X507934Y677537D01*
X507867Y677540D01*
X507740Y677518D01*
X507612Y677504D01*
X507549Y677484D01*
X507483Y677473D01*
X507364Y677425D01*
X507241Y677386D01*
X507183Y677354D01*
X507121Y677329D01*
X507014Y677258D01*
X506901Y677195D01*
X506851Y677151D01*
X506796Y677115D01*
X506704Y677024D01*
X506607Y676939D01*
X506567Y676886D01*
X506520Y676839D01*
X506450Y676731D01*
X506372Y676628D01*
X506344Y676568D01*
X506307Y676512D01*
X506260Y676392D01*
X506205Y676276D01*
X506189Y676211D01*
X506165Y676149D01*
X506153Y676063D01*
X506113Y675897D01*
X506108Y675727D01*
X506096Y675640D01*
X506096Y655320D01*
X506103Y655254D01*
X506100Y655187D01*
X506122Y655060D01*
X506136Y654932D01*
X506156Y654869D01*
X506167Y654803D01*
X506215Y654684D01*
X506254Y654561D01*
X506286Y654503D01*
X506311Y654441D01*
X506382Y654334D01*
X506445Y654221D01*
X506489Y654171D01*
X506525Y654116D01*
X506616Y654024D01*
X506701Y653927D01*
X506754Y653887D01*
X506801Y653840D01*
X506909Y653770D01*
X507012Y653692D01*
X507072Y653664D01*
X507128Y653627D01*
X507248Y653580D01*
X507364Y653525D01*
X507429Y653509D01*
X507491Y653485D01*
X507577Y653473D01*
X507743Y653433D01*
X507913Y653428D01*
X508000Y653416D01*
X619760Y653416D01*
X619826Y653423D01*
X619893Y653420D01*
X620020Y653442D01*
X620148Y653456D01*
X620211Y653476D01*
X620277Y653487D01*
X620396Y653535D01*
X620519Y653574D01*
X620577Y653606D01*
X620639Y653631D01*
X620746Y653702D01*
X620859Y653765D01*
X620909Y653809D01*
X620965Y653845D01*
X621056Y653936D01*
X621153Y654021D01*
X621193Y654074D01*
X621240Y654121D01*
X621310Y654229D01*
X621388Y654332D01*
X621416Y654392D01*
X621453Y654448D01*
X621500Y654568D01*
X621555Y654684D01*
X621571Y654749D01*
X621595Y654811D01*
X621607Y654897D01*
X621647Y655063D01*
X621652Y655233D01*
X621664Y655320D01*
X621664Y739776D01*
X1057276Y739776D01*
X1057276Y668242D01*
X1057279Y668209D01*
X1057277Y668176D01*
X1057299Y668016D01*
X1057316Y667855D01*
X1057326Y667823D01*
X1057330Y667790D01*
X1057385Y667637D01*
X1057434Y667483D01*
X1057450Y667454D01*
X1057461Y667423D01*
X1057545Y667285D01*
X1057625Y667144D01*
X1057647Y667118D01*
X1057664Y667090D01*
X1057775Y666972D01*
X1057881Y666850D01*
X1057908Y666830D01*
X1057930Y666805D01*
X1058063Y666712D01*
X1058192Y666615D01*
X1058222Y666600D01*
X1058249Y666581D01*
X1058398Y666517D01*
X1058544Y666448D01*
X1058576Y666440D01*
X1058607Y666426D01*
X1058766Y666394D01*
X1058923Y666356D01*
X1058956Y666355D01*
X1058989Y666348D01*
X1059151Y666348D01*
X1059313Y666343D01*
X1059345Y666349D01*
X1059379Y666349D01*
X1059537Y666382D01*
X1059697Y666410D01*
X1059727Y666422D01*
X1059760Y666429D01*
X1059909Y666494D01*
X1060059Y666553D01*
X1060087Y666571D01*
X1060117Y666585D01*
X1060184Y666635D01*
X1060385Y666768D01*
X1060468Y666852D01*
X1060527Y666896D01*
X1066991Y673361D01*
X1068978Y673361D01*
X1068978Y663518D01*
X1068984Y663464D01*
X1068983Y663437D01*
X1068984Y663429D01*
X1068983Y663385D01*
X1069005Y663258D01*
X1069011Y663202D01*
X1068996Y663139D01*
X1068990Y662969D01*
X1068978Y662882D01*
X1068978Y653039D01*
X1066991Y653039D01*
X1060527Y659504D01*
X1060501Y659525D01*
X1060479Y659550D01*
X1060350Y659648D01*
X1060224Y659750D01*
X1060195Y659765D01*
X1060168Y659785D01*
X1060022Y659855D01*
X1059878Y659929D01*
X1059846Y659938D01*
X1059816Y659952D01*
X1059659Y659991D01*
X1059503Y660034D01*
X1059469Y660037D01*
X1059437Y660044D01*
X1059275Y660050D01*
X1059114Y660061D01*
X1059081Y660056D01*
X1059047Y660057D01*
X1058888Y660029D01*
X1058728Y660007D01*
X1058696Y659996D01*
X1058663Y659990D01*
X1058513Y659931D01*
X1058360Y659876D01*
X1058332Y659859D01*
X1058301Y659847D01*
X1058166Y659758D01*
X1058028Y659673D01*
X1058003Y659651D01*
X1057976Y659632D01*
X1057861Y659518D01*
X1057743Y659407D01*
X1057724Y659380D01*
X1057700Y659356D01*
X1057612Y659221D01*
X1057519Y659088D01*
X1057506Y659058D01*
X1057487Y659030D01*
X1057428Y658879D01*
X1057364Y658731D01*
X1057357Y658698D01*
X1057345Y658667D01*
X1057334Y658584D01*
X1057285Y658349D01*
X1057286Y658230D01*
X1057276Y658158D01*
X1057276Y650240D01*
X1057283Y650174D01*
X1057280Y650107D01*
X1057302Y649980D01*
X1057316Y649852D01*
X1057336Y649789D01*
X1057347Y649723D01*
X1057395Y649604D01*
X1057434Y649481D01*
X1057466Y649423D01*
X1057491Y649361D01*
X1057562Y649254D01*
X1057625Y649141D01*
X1057669Y649091D01*
X1057705Y649036D01*
X1057796Y648944D01*
X1057881Y648847D01*
X1057934Y648807D01*
X1057981Y648760D01*
X1058089Y648690D01*
X1058192Y648612D01*
X1058252Y648584D01*
X1058308Y648547D01*
X1058428Y648500D01*
X1058544Y648445D01*
X1058609Y648429D01*
X1058671Y648405D01*
X1058757Y648393D01*
X1058923Y648353D01*
X1059093Y648348D01*
X1059180Y648336D01*
X1107440Y648336D01*
X1107506Y648343D01*
G37*
%LPC*%
G36*
X532049Y667249D02*
X532049Y667249D01*
X532049Y672041D01*
X545134Y672041D01*
X545781Y671868D01*
X546360Y671533D01*
X546833Y671060D01*
X547168Y670481D01*
X547341Y669834D01*
X547341Y667249D01*
X532049Y667249D01*
G37*
%LPD*%
%LPC*%
G36*
X512259Y667249D02*
X512259Y667249D01*
X512259Y669834D01*
X512432Y670481D01*
X512767Y671060D01*
X513240Y671533D01*
X513819Y671868D01*
X514466Y672041D01*
X527551Y672041D01*
X527551Y667249D01*
X512259Y667249D01*
G37*
%LPD*%
%LPC*%
G36*
X532049Y657959D02*
X532049Y657959D01*
X532049Y662751D01*
X547341Y662751D01*
X547341Y660166D01*
X547168Y659519D01*
X546833Y658940D01*
X546360Y658467D01*
X545781Y658132D01*
X545134Y657959D01*
X532049Y657959D01*
G37*
%LPD*%
%LPC*%
G36*
X514466Y657959D02*
X514466Y657959D01*
X513819Y658132D01*
X513240Y658467D01*
X512767Y658940D01*
X512432Y659519D01*
X512259Y660166D01*
X512259Y662751D01*
X527551Y662751D01*
X527551Y657959D01*
X514466Y657959D01*
G37*
%LPD*%
%LPC*%
G36*
X1073422Y665422D02*
X1073422Y665422D01*
X1073422Y673361D01*
X1075409Y673361D01*
X1081361Y667409D01*
X1081361Y665422D01*
X1073422Y665422D01*
G37*
%LPD*%
%LPC*%
G36*
X1086439Y665422D02*
X1086439Y665422D01*
X1086439Y667409D01*
X1092391Y673361D01*
X1094378Y673361D01*
X1094378Y665422D01*
X1086439Y665422D01*
G37*
%LPD*%
%LPC*%
G36*
X1073422Y653039D02*
X1073422Y653039D01*
X1073422Y660978D01*
X1081361Y660978D01*
X1081361Y658991D01*
X1075409Y653039D01*
X1073422Y653039D01*
G37*
%LPD*%
%LPC*%
G36*
X1092391Y653039D02*
X1092391Y653039D01*
X1086439Y658991D01*
X1086439Y660978D01*
X1094378Y660978D01*
X1094378Y653039D01*
X1092391Y653039D01*
G37*
%LPD*%
D10*
X190500Y431800D03*
D11*
X190500Y406400D03*
D10*
X190500Y457200D03*
D12*
X93599Y254000D03*
X109601Y254000D03*
X287274Y254000D03*
X303276Y254000D03*
X1046099Y254000D03*
X1062101Y254000D03*
X855599Y254000D03*
X871601Y254000D03*
X665099Y254000D03*
X681101Y254000D03*
X474599Y254000D03*
X490601Y254000D03*
D13*
X89900Y152000D03*
X89900Y102000D03*
X214900Y152000D03*
X214900Y102000D03*
X283575Y152000D03*
X283575Y102000D03*
X408575Y152000D03*
X408575Y102000D03*
X1042400Y152000D03*
X1042400Y102000D03*
X1167400Y152000D03*
X1167400Y102000D03*
X851900Y152000D03*
X851900Y102000D03*
X976900Y152000D03*
X976900Y102000D03*
D14*
X1147400Y663200D03*
D15*
X1147400Y637800D03*
X1122000Y663200D03*
X1122000Y637800D03*
X1096600Y663200D03*
X1096600Y637800D03*
X1071200Y663200D03*
X1071200Y637800D03*
X1045800Y663200D03*
X1045800Y637800D03*
X1020400Y663200D03*
X1020400Y637800D03*
X995000Y663200D03*
X995000Y637800D03*
X969600Y663200D03*
X969600Y637800D03*
X944200Y663200D03*
X944200Y637800D03*
X918800Y663200D03*
X918800Y637800D03*
X893400Y663200D03*
X893400Y637800D03*
X868000Y663200D03*
X868000Y637800D03*
X842600Y663200D03*
X842600Y637800D03*
X817200Y663200D03*
X817200Y637800D03*
X791800Y663200D03*
X791800Y637800D03*
X766400Y663200D03*
X766400Y637800D03*
X741000Y663200D03*
X741000Y637800D03*
X715600Y663200D03*
X715600Y637800D03*
D14*
X1147400Y409200D03*
D15*
X1147400Y383800D03*
X1122000Y409200D03*
X1122000Y383800D03*
X1096600Y409200D03*
X1096600Y383800D03*
X1071200Y409200D03*
X1071200Y383800D03*
X1045800Y409200D03*
X1045800Y383800D03*
X1020400Y409200D03*
X1020400Y383800D03*
X995000Y409200D03*
X995000Y383800D03*
X969600Y409200D03*
X969600Y383800D03*
X944200Y409200D03*
X944200Y383800D03*
X918800Y409200D03*
X918800Y383800D03*
X893400Y409200D03*
X893400Y383800D03*
X868000Y409200D03*
X868000Y383800D03*
X842600Y409200D03*
X842600Y383800D03*
X817200Y409200D03*
X817200Y383800D03*
X791800Y409200D03*
X791800Y383800D03*
X766400Y409200D03*
X766400Y383800D03*
X741000Y409200D03*
X741000Y383800D03*
X715600Y409200D03*
X715600Y383800D03*
D13*
X661400Y152000D03*
X661400Y102000D03*
X786400Y152000D03*
X786400Y102000D03*
X470900Y152000D03*
X470900Y102000D03*
X595900Y152000D03*
X595900Y102000D03*
D16*
X307848Y400812D03*
X314198Y400812D03*
X320802Y400812D03*
X327152Y400812D03*
X327152Y437388D03*
X320802Y437388D03*
X314198Y437388D03*
X307848Y437388D03*
D17*
X495300Y569341D03*
X495300Y700659D03*
D18*
X529800Y645000D03*
X529800Y665000D03*
X529800Y625000D03*
X529800Y605000D03*
D19*
X48260Y393700D03*
X48260Y104140D03*
X1216660Y104140D03*
D20*
X48260Y45720D03*
X48260Y454660D03*
X1216660Y711200D03*
X1216660Y53340D03*
D19*
X149860Y457200D03*
D21*
X190500Y457200D01*
D19*
X301625Y355600D03*
D22*
X301625Y374650D01*
X314198Y387223D02*
X314198Y400812D01*
X314198Y387223D02*
X301625Y374650D01*
X969600Y663200D02*
X995000Y663200D01*
D19*
X637540Y604520D03*
D22*
X637060Y605000D02*
X529800Y605000D01*
D23*
X637060Y605000D02*
X637540Y604520D01*
D22*
X214900Y102000D02*
X89900Y102000D01*
X283575Y102000D02*
X408575Y102000D01*
X470900Y102000D02*
X595900Y102000D01*
X661400Y102000D02*
X786400Y102000D01*
X851900Y102000D02*
X976900Y102000D01*
X1042400Y102000D02*
X1167400Y102000D01*
D23*
X89900Y152000D02*
X76600Y152000D01*
X63500Y165100D01*
X63500Y241300D01*
X76200Y254000D01*
X93599Y254000D01*
X93599Y296799D01*
X127000Y330200D01*
X546100Y330200D01*
X711200Y495300D01*
X891540Y495300D01*
X944880Y441960D01*
X944880Y409880D01*
X944200Y409200D01*
X214900Y152000D02*
X89900Y152000D01*
D19*
X127000Y254000D03*
D22*
X109601Y254000D01*
D19*
X320675Y254000D03*
D22*
X303276Y254000D01*
D19*
X1079500Y254000D03*
D22*
X1062101Y254000D01*
D19*
X889000Y254000D03*
D22*
X871601Y254000D01*
D19*
X698500Y254000D03*
D22*
X681101Y254000D01*
D19*
X508000Y254000D03*
D22*
X490601Y254000D01*
D19*
X320675Y358775D03*
D22*
X320675Y400685D01*
D24*
X320802Y400812D01*
D23*
X320802Y437388D01*
X283575Y152000D02*
X267100Y152000D01*
X254000Y165100D02*
X254000Y241300D01*
X266700Y254000D01*
X287274Y254000D01*
X254000Y165100D02*
X267100Y152000D01*
X317500Y317500D02*
X546100Y317500D01*
X317500Y317500D02*
X287274Y287274D01*
X713740Y485140D02*
X886460Y485140D01*
X918800Y452800D01*
X918800Y409200D01*
X713740Y485140D02*
X546100Y317500D01*
X408575Y152000D02*
X283575Y152000D01*
X287274Y254000D02*
X287274Y287274D01*
X1029100Y152000D02*
X1042400Y152000D01*
X1029100Y152000D02*
X1016000Y165100D01*
X1016000Y241300D01*
X1028700Y254000D01*
X1046099Y254000D01*
X944200Y363900D02*
X944200Y383800D01*
X1016000Y292100D02*
X1028700Y292100D01*
X1046099Y274701D02*
X1046099Y254000D01*
X1016000Y292100D02*
X944200Y363900D01*
X1028700Y292100D02*
X1046099Y274701D01*
X1042400Y152000D02*
X1167400Y152000D01*
X918800Y360000D02*
X918800Y383800D01*
X918800Y360000D02*
X855599Y296799D01*
X851900Y152000D02*
X976900Y152000D01*
X851900Y152000D02*
X851500Y152400D01*
X838200Y152400D01*
X825500Y165100D01*
X825500Y241300D01*
X838200Y254000D01*
X855599Y254000D01*
X855599Y296799D01*
X673100Y292100D02*
X665099Y284099D01*
X673100Y292100D02*
X825500Y292100D01*
X893400Y360000D02*
X893400Y383800D01*
X893400Y360000D02*
X825500Y292100D01*
X786400Y152000D02*
X661400Y152000D01*
X661000Y152400D01*
X647700Y152400D01*
X635000Y165100D01*
X635000Y241300D01*
X647700Y254000D01*
X665099Y254000D01*
X665099Y284099D01*
X868000Y360000D02*
X868000Y383800D01*
X495300Y304800D02*
X474599Y284099D01*
X495300Y304800D02*
X812800Y304800D01*
X868000Y360000D01*
X595900Y152000D02*
X470900Y152000D01*
X470500Y152400D01*
X457200Y152400D01*
X444500Y165100D01*
X444500Y241300D01*
X457200Y254000D01*
X474599Y254000D01*
X474599Y284099D01*
X529800Y645000D02*
X624680Y645000D01*
X708660Y728980D01*
X1010920Y728980D01*
X1046480Y693420D01*
X1046480Y663880D01*
X1045800Y663200D01*
X617380Y625000D02*
X529800Y625000D01*
X617380Y625000D02*
X706120Y713740D01*
X772458Y713740D01*
X772569Y713738D01*
X772679Y713732D01*
X772790Y713723D01*
X772900Y713709D01*
X773009Y713692D01*
X773118Y713671D01*
X773226Y713646D01*
X773333Y713617D01*
X773439Y713585D01*
X773544Y713549D01*
X773647Y713509D01*
X773749Y713466D01*
X773850Y713419D01*
X773949Y713368D01*
X774046Y713315D01*
X774140Y713258D01*
X774233Y713197D01*
X774324Y713134D01*
X774413Y713067D01*
X774499Y712997D01*
X774582Y712924D01*
X774664Y712849D01*
X774742Y712771D01*
X774817Y712689D01*
X774890Y712606D01*
X774960Y712520D01*
X775027Y712431D01*
X775090Y712340D01*
X775151Y712247D01*
X775208Y712153D01*
X775261Y712056D01*
X775312Y711957D01*
X775359Y711856D01*
X775402Y711754D01*
X775442Y711651D01*
X775478Y711546D01*
X775510Y711440D01*
X775539Y711333D01*
X775564Y711225D01*
X775585Y711116D01*
X775602Y711007D01*
X775616Y710897D01*
X775625Y710786D01*
X775631Y710676D01*
X775633Y710565D01*
X775633Y709893D01*
X775635Y709782D01*
X775641Y709672D01*
X775650Y709561D01*
X775664Y709451D01*
X775681Y709342D01*
X775702Y709233D01*
X775727Y709125D01*
X775756Y709018D01*
X775788Y708912D01*
X775824Y708807D01*
X775864Y708704D01*
X775907Y708602D01*
X775954Y708501D01*
X776005Y708402D01*
X776058Y708306D01*
X776115Y708211D01*
X776176Y708118D01*
X776239Y708027D01*
X776306Y707938D01*
X776376Y707852D01*
X776449Y707769D01*
X776524Y707687D01*
X776602Y707609D01*
X776684Y707534D01*
X776767Y707461D01*
X776853Y707391D01*
X776942Y707324D01*
X777033Y707261D01*
X777126Y707200D01*
X777221Y707143D01*
X777317Y707090D01*
X777416Y707039D01*
X777517Y706992D01*
X777619Y706949D01*
X777722Y706909D01*
X777827Y706873D01*
X777933Y706841D01*
X778040Y706812D01*
X778148Y706787D01*
X778257Y706766D01*
X778366Y706749D01*
X778476Y706735D01*
X778587Y706726D01*
X778697Y706720D01*
X778808Y706718D01*
X792855Y706718D01*
X792966Y706720D01*
X793076Y706726D01*
X793187Y706735D01*
X793297Y706749D01*
X793406Y706766D01*
X793515Y706787D01*
X793623Y706812D01*
X793730Y706841D01*
X793836Y706873D01*
X793941Y706909D01*
X794044Y706949D01*
X794146Y706992D01*
X794247Y707039D01*
X794346Y707090D01*
X794443Y707143D01*
X794537Y707200D01*
X794630Y707261D01*
X794721Y707324D01*
X794810Y707391D01*
X794896Y707461D01*
X794979Y707534D01*
X795061Y707609D01*
X795139Y707687D01*
X795214Y707769D01*
X795287Y707852D01*
X795357Y707938D01*
X795424Y708027D01*
X795487Y708118D01*
X795548Y708211D01*
X795605Y708306D01*
X795658Y708402D01*
X795709Y708501D01*
X795756Y708602D01*
X795799Y708704D01*
X795839Y708807D01*
X795875Y708912D01*
X795907Y709018D01*
X795936Y709125D01*
X795961Y709233D01*
X795982Y709342D01*
X795999Y709451D01*
X796013Y709561D01*
X796022Y709672D01*
X796028Y709782D01*
X796030Y709893D01*
X796030Y717587D01*
X796032Y717698D01*
X796038Y717808D01*
X796047Y717919D01*
X796061Y718029D01*
X796078Y718138D01*
X796099Y718247D01*
X796124Y718355D01*
X796153Y718462D01*
X796185Y718568D01*
X796221Y718673D01*
X796261Y718776D01*
X796304Y718878D01*
X796351Y718979D01*
X796402Y719078D01*
X796455Y719175D01*
X796512Y719269D01*
X796573Y719362D01*
X796636Y719453D01*
X796703Y719542D01*
X796773Y719628D01*
X796846Y719711D01*
X796921Y719793D01*
X796999Y719871D01*
X797081Y719946D01*
X797164Y720019D01*
X797250Y720089D01*
X797339Y720156D01*
X797430Y720219D01*
X797523Y720280D01*
X797618Y720337D01*
X797714Y720390D01*
X797813Y720441D01*
X797914Y720488D01*
X798016Y720531D01*
X798119Y720571D01*
X798224Y720607D01*
X798330Y720639D01*
X798437Y720668D01*
X798545Y720693D01*
X798654Y720714D01*
X798763Y720731D01*
X798873Y720745D01*
X798984Y720754D01*
X799094Y720760D01*
X799205Y720762D01*
X813253Y720762D01*
X813364Y720760D01*
X813474Y720754D01*
X813585Y720745D01*
X813695Y720731D01*
X813804Y720714D01*
X813913Y720693D01*
X814021Y720668D01*
X814128Y720639D01*
X814234Y720607D01*
X814339Y720571D01*
X814442Y720531D01*
X814544Y720488D01*
X814645Y720441D01*
X814744Y720390D01*
X814841Y720337D01*
X814935Y720280D01*
X815028Y720219D01*
X815119Y720156D01*
X815208Y720089D01*
X815294Y720019D01*
X815377Y719946D01*
X815459Y719871D01*
X815537Y719793D01*
X815612Y719711D01*
X815685Y719628D01*
X815755Y719542D01*
X815822Y719453D01*
X815885Y719362D01*
X815946Y719269D01*
X816003Y719175D01*
X816056Y719078D01*
X816107Y718979D01*
X816154Y718878D01*
X816197Y718776D01*
X816237Y718673D01*
X816273Y718568D01*
X816305Y718462D01*
X816334Y718355D01*
X816359Y718247D01*
X816380Y718138D01*
X816397Y718029D01*
X816411Y717919D01*
X816420Y717808D01*
X816426Y717698D01*
X816428Y717587D01*
X816428Y709893D01*
X816430Y709782D01*
X816436Y709672D01*
X816445Y709561D01*
X816459Y709451D01*
X816476Y709342D01*
X816497Y709233D01*
X816522Y709125D01*
X816551Y709018D01*
X816583Y708912D01*
X816619Y708807D01*
X816659Y708704D01*
X816702Y708602D01*
X816749Y708501D01*
X816800Y708402D01*
X816853Y708306D01*
X816910Y708211D01*
X816971Y708118D01*
X817034Y708027D01*
X817101Y707938D01*
X817171Y707852D01*
X817244Y707769D01*
X817319Y707687D01*
X817397Y707609D01*
X817479Y707534D01*
X817562Y707461D01*
X817648Y707391D01*
X817737Y707324D01*
X817828Y707261D01*
X817921Y707200D01*
X818016Y707143D01*
X818112Y707090D01*
X818211Y707039D01*
X818312Y706992D01*
X818414Y706949D01*
X818517Y706909D01*
X818622Y706873D01*
X818728Y706841D01*
X818835Y706812D01*
X818943Y706787D01*
X819052Y706766D01*
X819161Y706749D01*
X819271Y706735D01*
X819382Y706726D01*
X819492Y706720D01*
X819603Y706718D01*
X833650Y706718D01*
X833761Y706720D01*
X833871Y706726D01*
X833982Y706735D01*
X834092Y706749D01*
X834201Y706766D01*
X834310Y706787D01*
X834418Y706812D01*
X834525Y706841D01*
X834631Y706873D01*
X834736Y706909D01*
X834839Y706949D01*
X834941Y706992D01*
X835042Y707039D01*
X835141Y707090D01*
X835238Y707143D01*
X835332Y707200D01*
X835425Y707261D01*
X835516Y707324D01*
X835605Y707391D01*
X835691Y707461D01*
X835774Y707534D01*
X835856Y707609D01*
X835934Y707687D01*
X836009Y707769D01*
X836082Y707852D01*
X836152Y707938D01*
X836219Y708027D01*
X836282Y708118D01*
X836343Y708211D01*
X836400Y708306D01*
X836453Y708402D01*
X836504Y708501D01*
X836551Y708602D01*
X836594Y708704D01*
X836634Y708807D01*
X836670Y708912D01*
X836702Y709018D01*
X836731Y709125D01*
X836756Y709233D01*
X836777Y709342D01*
X836794Y709451D01*
X836808Y709561D01*
X836817Y709672D01*
X836823Y709782D01*
X836825Y709893D01*
X836825Y710565D01*
X836827Y710676D01*
X836833Y710786D01*
X836842Y710897D01*
X836856Y711007D01*
X836873Y711116D01*
X836894Y711225D01*
X836919Y711333D01*
X836948Y711440D01*
X836980Y711546D01*
X837016Y711651D01*
X837056Y711754D01*
X837099Y711856D01*
X837146Y711957D01*
X837197Y712056D01*
X837250Y712153D01*
X837307Y712247D01*
X837368Y712340D01*
X837431Y712431D01*
X837498Y712520D01*
X837568Y712606D01*
X837641Y712689D01*
X837716Y712771D01*
X837794Y712849D01*
X837876Y712924D01*
X837959Y712997D01*
X838045Y713067D01*
X838134Y713134D01*
X838225Y713197D01*
X838318Y713258D01*
X838413Y713315D01*
X838509Y713368D01*
X838608Y713419D01*
X838709Y713466D01*
X838811Y713509D01*
X838914Y713549D01*
X839019Y713585D01*
X839125Y713617D01*
X839232Y713646D01*
X839340Y713671D01*
X839449Y713692D01*
X839558Y713709D01*
X839668Y713723D01*
X839779Y713732D01*
X839889Y713738D01*
X840000Y713740D01*
X998220Y713740D01*
X1021080Y690880D01*
X1021080Y663880D01*
X1020400Y663200D01*
X327152Y459232D02*
X327152Y437388D01*
X327152Y459232D02*
X350520Y482600D01*
X655320Y482600D01*
X741680Y568960D02*
X1051560Y568960D01*
X1071200Y588600D01*
X1071200Y637800D01*
X741680Y568960D02*
X655320Y482600D01*
D21*
X292100Y342900D02*
X228600Y406400D01*
X292100Y342900D02*
X533400Y342900D01*
X995000Y409200D02*
X995000Y468040D01*
X701040Y510540D02*
X533400Y342900D01*
X701040Y510540D02*
X952500Y510540D01*
X995000Y468040D01*
D22*
X868680Y601980D02*
X843280Y576580D01*
X868680Y601980D02*
X868680Y637120D01*
D23*
X868000Y637800D01*
D22*
X347980Y492760D02*
X314198Y458978D01*
X347980Y492760D02*
X650240Y492760D01*
X734060Y576580D01*
X843280Y576580D01*
D21*
X228600Y406400D02*
X190500Y406400D01*
D22*
X314198Y437388D02*
X314198Y458978D01*
D21*
X238760Y416560D02*
X228600Y406400D01*
X314198Y425958D02*
X314198Y437388D01*
X304800Y416560D02*
X238760Y416560D01*
X304800Y416560D02*
X314198Y425958D01*
D23*
X281940Y452120D02*
X261620Y431800D01*
X307848Y437388D02*
X307848Y449072D01*
X261620Y431800D02*
X190500Y431800D01*
X281940Y452120D02*
X304800Y452120D01*
X307848Y449072D01*
M02*
