G04 EAGLE Gerber RS-274X export*
G75*
%MOMM*%
%FSLAX34Y34*%
%LPD*%
%INSoldermask Top*%
%IPPOS*%
%AMOC8*
5,1,8,0,0,1.08239X$1,22.5*%
G01*
%ADD10P,2.144431X8X202.500000*%
%ADD11R,1.981200X1.981200*%
%ADD12R,1.153159X1.234441*%
%ADD13C,1.703200*%
%ADD14R,1.727200X1.727200*%
%ADD15P,1.869504X8X202.500000*%
%ADD16R,0.558800X1.524000*%
%ADD17C,3.530600*%
%ADD18R,3.203200X1.103200*%
%ADD19C,0.609600*%
%ADD20C,1.219200*%
%ADD21C,4.648200*%


D10*
X190500Y431800D03*
D11*
X190500Y406400D03*
D10*
X190500Y457200D03*
D12*
X93599Y254000D03*
X109601Y254000D03*
X287274Y254000D03*
X303276Y254000D03*
X1046099Y254000D03*
X1062101Y254000D03*
X855599Y254000D03*
X871601Y254000D03*
X665099Y254000D03*
X681101Y254000D03*
X474599Y254000D03*
X490601Y254000D03*
D13*
X89900Y152000D03*
X89900Y102000D03*
X214900Y152000D03*
X214900Y102000D03*
X283575Y152000D03*
X283575Y102000D03*
X408575Y152000D03*
X408575Y102000D03*
X1042400Y152000D03*
X1042400Y102000D03*
X1167400Y152000D03*
X1167400Y102000D03*
X851900Y152000D03*
X851900Y102000D03*
X976900Y152000D03*
X976900Y102000D03*
D14*
X1147400Y663200D03*
D15*
X1147400Y637800D03*
X1122000Y663200D03*
X1122000Y637800D03*
X1096600Y663200D03*
X1096600Y637800D03*
X1071200Y663200D03*
X1071200Y637800D03*
X1045800Y663200D03*
X1045800Y637800D03*
X1020400Y663200D03*
X1020400Y637800D03*
X995000Y663200D03*
X995000Y637800D03*
X969600Y663200D03*
X969600Y637800D03*
X944200Y663200D03*
X944200Y637800D03*
X918800Y663200D03*
X918800Y637800D03*
X893400Y663200D03*
X893400Y637800D03*
X868000Y663200D03*
X868000Y637800D03*
X842600Y663200D03*
X842600Y637800D03*
X817200Y663200D03*
X817200Y637800D03*
X791800Y663200D03*
X791800Y637800D03*
X766400Y663200D03*
X766400Y637800D03*
X741000Y663200D03*
X741000Y637800D03*
X715600Y663200D03*
X715600Y637800D03*
D14*
X1147400Y409200D03*
D15*
X1147400Y383800D03*
X1122000Y409200D03*
X1122000Y383800D03*
X1096600Y409200D03*
X1096600Y383800D03*
X1071200Y409200D03*
X1071200Y383800D03*
X1045800Y409200D03*
X1045800Y383800D03*
X1020400Y409200D03*
X1020400Y383800D03*
X995000Y409200D03*
X995000Y383800D03*
X969600Y409200D03*
X969600Y383800D03*
X944200Y409200D03*
X944200Y383800D03*
X918800Y409200D03*
X918800Y383800D03*
X893400Y409200D03*
X893400Y383800D03*
X868000Y409200D03*
X868000Y383800D03*
X842600Y409200D03*
X842600Y383800D03*
X817200Y409200D03*
X817200Y383800D03*
X791800Y409200D03*
X791800Y383800D03*
X766400Y409200D03*
X766400Y383800D03*
X741000Y409200D03*
X741000Y383800D03*
X715600Y409200D03*
X715600Y383800D03*
D13*
X661400Y152000D03*
X661400Y102000D03*
X786400Y152000D03*
X786400Y102000D03*
X470900Y152000D03*
X470900Y102000D03*
X595900Y152000D03*
X595900Y102000D03*
D16*
X307848Y400812D03*
X314198Y400812D03*
X320802Y400812D03*
X327152Y400812D03*
X327152Y437388D03*
X320802Y437388D03*
X314198Y437388D03*
X307848Y437388D03*
D17*
X495300Y569341D03*
X495300Y700659D03*
D18*
X529800Y645000D03*
X529800Y665000D03*
X529800Y625000D03*
X529800Y605000D03*
D19*
X40640Y393700D02*
X40642Y393887D01*
X40649Y394074D01*
X40661Y394261D01*
X40677Y394447D01*
X40697Y394633D01*
X40722Y394818D01*
X40752Y395003D01*
X40786Y395187D01*
X40825Y395370D01*
X40868Y395552D01*
X40916Y395732D01*
X40968Y395912D01*
X41025Y396090D01*
X41085Y396267D01*
X41151Y396442D01*
X41220Y396616D01*
X41294Y396788D01*
X41372Y396958D01*
X41454Y397126D01*
X41540Y397292D01*
X41630Y397456D01*
X41724Y397617D01*
X41822Y397777D01*
X41924Y397933D01*
X42030Y398088D01*
X42140Y398239D01*
X42253Y398388D01*
X42370Y398534D01*
X42490Y398677D01*
X42614Y398817D01*
X42741Y398954D01*
X42872Y399088D01*
X43006Y399219D01*
X43143Y399346D01*
X43283Y399470D01*
X43426Y399590D01*
X43572Y399707D01*
X43721Y399820D01*
X43872Y399930D01*
X44027Y400036D01*
X44183Y400138D01*
X44343Y400236D01*
X44504Y400330D01*
X44668Y400420D01*
X44834Y400506D01*
X45002Y400588D01*
X45172Y400666D01*
X45344Y400740D01*
X45518Y400809D01*
X45693Y400875D01*
X45870Y400935D01*
X46048Y400992D01*
X46228Y401044D01*
X46408Y401092D01*
X46590Y401135D01*
X46773Y401174D01*
X46957Y401208D01*
X47142Y401238D01*
X47327Y401263D01*
X47513Y401283D01*
X47699Y401299D01*
X47886Y401311D01*
X48073Y401318D01*
X48260Y401320D01*
X48447Y401318D01*
X48634Y401311D01*
X48821Y401299D01*
X49007Y401283D01*
X49193Y401263D01*
X49378Y401238D01*
X49563Y401208D01*
X49747Y401174D01*
X49930Y401135D01*
X50112Y401092D01*
X50292Y401044D01*
X50472Y400992D01*
X50650Y400935D01*
X50827Y400875D01*
X51002Y400809D01*
X51176Y400740D01*
X51348Y400666D01*
X51518Y400588D01*
X51686Y400506D01*
X51852Y400420D01*
X52016Y400330D01*
X52177Y400236D01*
X52337Y400138D01*
X52493Y400036D01*
X52648Y399930D01*
X52799Y399820D01*
X52948Y399707D01*
X53094Y399590D01*
X53237Y399470D01*
X53377Y399346D01*
X53514Y399219D01*
X53648Y399088D01*
X53779Y398954D01*
X53906Y398817D01*
X54030Y398677D01*
X54150Y398534D01*
X54267Y398388D01*
X54380Y398239D01*
X54490Y398088D01*
X54596Y397933D01*
X54698Y397777D01*
X54796Y397617D01*
X54890Y397456D01*
X54980Y397292D01*
X55066Y397126D01*
X55148Y396958D01*
X55226Y396788D01*
X55300Y396616D01*
X55369Y396442D01*
X55435Y396267D01*
X55495Y396090D01*
X55552Y395912D01*
X55604Y395732D01*
X55652Y395552D01*
X55695Y395370D01*
X55734Y395187D01*
X55768Y395003D01*
X55798Y394818D01*
X55823Y394633D01*
X55843Y394447D01*
X55859Y394261D01*
X55871Y394074D01*
X55878Y393887D01*
X55880Y393700D01*
X55878Y393513D01*
X55871Y393326D01*
X55859Y393139D01*
X55843Y392953D01*
X55823Y392767D01*
X55798Y392582D01*
X55768Y392397D01*
X55734Y392213D01*
X55695Y392030D01*
X55652Y391848D01*
X55604Y391668D01*
X55552Y391488D01*
X55495Y391310D01*
X55435Y391133D01*
X55369Y390958D01*
X55300Y390784D01*
X55226Y390612D01*
X55148Y390442D01*
X55066Y390274D01*
X54980Y390108D01*
X54890Y389944D01*
X54796Y389783D01*
X54698Y389623D01*
X54596Y389467D01*
X54490Y389312D01*
X54380Y389161D01*
X54267Y389012D01*
X54150Y388866D01*
X54030Y388723D01*
X53906Y388583D01*
X53779Y388446D01*
X53648Y388312D01*
X53514Y388181D01*
X53377Y388054D01*
X53237Y387930D01*
X53094Y387810D01*
X52948Y387693D01*
X52799Y387580D01*
X52648Y387470D01*
X52493Y387364D01*
X52337Y387262D01*
X52177Y387164D01*
X52016Y387070D01*
X51852Y386980D01*
X51686Y386894D01*
X51518Y386812D01*
X51348Y386734D01*
X51176Y386660D01*
X51002Y386591D01*
X50827Y386525D01*
X50650Y386465D01*
X50472Y386408D01*
X50292Y386356D01*
X50112Y386308D01*
X49930Y386265D01*
X49747Y386226D01*
X49563Y386192D01*
X49378Y386162D01*
X49193Y386137D01*
X49007Y386117D01*
X48821Y386101D01*
X48634Y386089D01*
X48447Y386082D01*
X48260Y386080D01*
X48073Y386082D01*
X47886Y386089D01*
X47699Y386101D01*
X47513Y386117D01*
X47327Y386137D01*
X47142Y386162D01*
X46957Y386192D01*
X46773Y386226D01*
X46590Y386265D01*
X46408Y386308D01*
X46228Y386356D01*
X46048Y386408D01*
X45870Y386465D01*
X45693Y386525D01*
X45518Y386591D01*
X45344Y386660D01*
X45172Y386734D01*
X45002Y386812D01*
X44834Y386894D01*
X44668Y386980D01*
X44504Y387070D01*
X44343Y387164D01*
X44183Y387262D01*
X44027Y387364D01*
X43872Y387470D01*
X43721Y387580D01*
X43572Y387693D01*
X43426Y387810D01*
X43283Y387930D01*
X43143Y388054D01*
X43006Y388181D01*
X42872Y388312D01*
X42741Y388446D01*
X42614Y388583D01*
X42490Y388723D01*
X42370Y388866D01*
X42253Y389012D01*
X42140Y389161D01*
X42030Y389312D01*
X41924Y389467D01*
X41822Y389623D01*
X41724Y389783D01*
X41630Y389944D01*
X41540Y390108D01*
X41454Y390274D01*
X41372Y390442D01*
X41294Y390612D01*
X41220Y390784D01*
X41151Y390958D01*
X41085Y391133D01*
X41025Y391310D01*
X40968Y391488D01*
X40916Y391668D01*
X40868Y391848D01*
X40825Y392030D01*
X40786Y392213D01*
X40752Y392397D01*
X40722Y392582D01*
X40697Y392767D01*
X40677Y392953D01*
X40661Y393139D01*
X40649Y393326D01*
X40642Y393513D01*
X40640Y393700D01*
D20*
X48260Y393700D03*
D19*
X40640Y104140D02*
X40642Y104327D01*
X40649Y104514D01*
X40661Y104701D01*
X40677Y104887D01*
X40697Y105073D01*
X40722Y105258D01*
X40752Y105443D01*
X40786Y105627D01*
X40825Y105810D01*
X40868Y105992D01*
X40916Y106172D01*
X40968Y106352D01*
X41025Y106530D01*
X41085Y106707D01*
X41151Y106882D01*
X41220Y107056D01*
X41294Y107228D01*
X41372Y107398D01*
X41454Y107566D01*
X41540Y107732D01*
X41630Y107896D01*
X41724Y108057D01*
X41822Y108217D01*
X41924Y108373D01*
X42030Y108528D01*
X42140Y108679D01*
X42253Y108828D01*
X42370Y108974D01*
X42490Y109117D01*
X42614Y109257D01*
X42741Y109394D01*
X42872Y109528D01*
X43006Y109659D01*
X43143Y109786D01*
X43283Y109910D01*
X43426Y110030D01*
X43572Y110147D01*
X43721Y110260D01*
X43872Y110370D01*
X44027Y110476D01*
X44183Y110578D01*
X44343Y110676D01*
X44504Y110770D01*
X44668Y110860D01*
X44834Y110946D01*
X45002Y111028D01*
X45172Y111106D01*
X45344Y111180D01*
X45518Y111249D01*
X45693Y111315D01*
X45870Y111375D01*
X46048Y111432D01*
X46228Y111484D01*
X46408Y111532D01*
X46590Y111575D01*
X46773Y111614D01*
X46957Y111648D01*
X47142Y111678D01*
X47327Y111703D01*
X47513Y111723D01*
X47699Y111739D01*
X47886Y111751D01*
X48073Y111758D01*
X48260Y111760D01*
X48447Y111758D01*
X48634Y111751D01*
X48821Y111739D01*
X49007Y111723D01*
X49193Y111703D01*
X49378Y111678D01*
X49563Y111648D01*
X49747Y111614D01*
X49930Y111575D01*
X50112Y111532D01*
X50292Y111484D01*
X50472Y111432D01*
X50650Y111375D01*
X50827Y111315D01*
X51002Y111249D01*
X51176Y111180D01*
X51348Y111106D01*
X51518Y111028D01*
X51686Y110946D01*
X51852Y110860D01*
X52016Y110770D01*
X52177Y110676D01*
X52337Y110578D01*
X52493Y110476D01*
X52648Y110370D01*
X52799Y110260D01*
X52948Y110147D01*
X53094Y110030D01*
X53237Y109910D01*
X53377Y109786D01*
X53514Y109659D01*
X53648Y109528D01*
X53779Y109394D01*
X53906Y109257D01*
X54030Y109117D01*
X54150Y108974D01*
X54267Y108828D01*
X54380Y108679D01*
X54490Y108528D01*
X54596Y108373D01*
X54698Y108217D01*
X54796Y108057D01*
X54890Y107896D01*
X54980Y107732D01*
X55066Y107566D01*
X55148Y107398D01*
X55226Y107228D01*
X55300Y107056D01*
X55369Y106882D01*
X55435Y106707D01*
X55495Y106530D01*
X55552Y106352D01*
X55604Y106172D01*
X55652Y105992D01*
X55695Y105810D01*
X55734Y105627D01*
X55768Y105443D01*
X55798Y105258D01*
X55823Y105073D01*
X55843Y104887D01*
X55859Y104701D01*
X55871Y104514D01*
X55878Y104327D01*
X55880Y104140D01*
X55878Y103953D01*
X55871Y103766D01*
X55859Y103579D01*
X55843Y103393D01*
X55823Y103207D01*
X55798Y103022D01*
X55768Y102837D01*
X55734Y102653D01*
X55695Y102470D01*
X55652Y102288D01*
X55604Y102108D01*
X55552Y101928D01*
X55495Y101750D01*
X55435Y101573D01*
X55369Y101398D01*
X55300Y101224D01*
X55226Y101052D01*
X55148Y100882D01*
X55066Y100714D01*
X54980Y100548D01*
X54890Y100384D01*
X54796Y100223D01*
X54698Y100063D01*
X54596Y99907D01*
X54490Y99752D01*
X54380Y99601D01*
X54267Y99452D01*
X54150Y99306D01*
X54030Y99163D01*
X53906Y99023D01*
X53779Y98886D01*
X53648Y98752D01*
X53514Y98621D01*
X53377Y98494D01*
X53237Y98370D01*
X53094Y98250D01*
X52948Y98133D01*
X52799Y98020D01*
X52648Y97910D01*
X52493Y97804D01*
X52337Y97702D01*
X52177Y97604D01*
X52016Y97510D01*
X51852Y97420D01*
X51686Y97334D01*
X51518Y97252D01*
X51348Y97174D01*
X51176Y97100D01*
X51002Y97031D01*
X50827Y96965D01*
X50650Y96905D01*
X50472Y96848D01*
X50292Y96796D01*
X50112Y96748D01*
X49930Y96705D01*
X49747Y96666D01*
X49563Y96632D01*
X49378Y96602D01*
X49193Y96577D01*
X49007Y96557D01*
X48821Y96541D01*
X48634Y96529D01*
X48447Y96522D01*
X48260Y96520D01*
X48073Y96522D01*
X47886Y96529D01*
X47699Y96541D01*
X47513Y96557D01*
X47327Y96577D01*
X47142Y96602D01*
X46957Y96632D01*
X46773Y96666D01*
X46590Y96705D01*
X46408Y96748D01*
X46228Y96796D01*
X46048Y96848D01*
X45870Y96905D01*
X45693Y96965D01*
X45518Y97031D01*
X45344Y97100D01*
X45172Y97174D01*
X45002Y97252D01*
X44834Y97334D01*
X44668Y97420D01*
X44504Y97510D01*
X44343Y97604D01*
X44183Y97702D01*
X44027Y97804D01*
X43872Y97910D01*
X43721Y98020D01*
X43572Y98133D01*
X43426Y98250D01*
X43283Y98370D01*
X43143Y98494D01*
X43006Y98621D01*
X42872Y98752D01*
X42741Y98886D01*
X42614Y99023D01*
X42490Y99163D01*
X42370Y99306D01*
X42253Y99452D01*
X42140Y99601D01*
X42030Y99752D01*
X41924Y99907D01*
X41822Y100063D01*
X41724Y100223D01*
X41630Y100384D01*
X41540Y100548D01*
X41454Y100714D01*
X41372Y100882D01*
X41294Y101052D01*
X41220Y101224D01*
X41151Y101398D01*
X41085Y101573D01*
X41025Y101750D01*
X40968Y101928D01*
X40916Y102108D01*
X40868Y102288D01*
X40825Y102470D01*
X40786Y102653D01*
X40752Y102837D01*
X40722Y103022D01*
X40697Y103207D01*
X40677Y103393D01*
X40661Y103579D01*
X40649Y103766D01*
X40642Y103953D01*
X40640Y104140D01*
D20*
X48260Y104140D03*
D19*
X1209040Y104140D02*
X1209042Y104327D01*
X1209049Y104514D01*
X1209061Y104701D01*
X1209077Y104887D01*
X1209097Y105073D01*
X1209122Y105258D01*
X1209152Y105443D01*
X1209186Y105627D01*
X1209225Y105810D01*
X1209268Y105992D01*
X1209316Y106172D01*
X1209368Y106352D01*
X1209425Y106530D01*
X1209485Y106707D01*
X1209551Y106882D01*
X1209620Y107056D01*
X1209694Y107228D01*
X1209772Y107398D01*
X1209854Y107566D01*
X1209940Y107732D01*
X1210030Y107896D01*
X1210124Y108057D01*
X1210222Y108217D01*
X1210324Y108373D01*
X1210430Y108528D01*
X1210540Y108679D01*
X1210653Y108828D01*
X1210770Y108974D01*
X1210890Y109117D01*
X1211014Y109257D01*
X1211141Y109394D01*
X1211272Y109528D01*
X1211406Y109659D01*
X1211543Y109786D01*
X1211683Y109910D01*
X1211826Y110030D01*
X1211972Y110147D01*
X1212121Y110260D01*
X1212272Y110370D01*
X1212427Y110476D01*
X1212583Y110578D01*
X1212743Y110676D01*
X1212904Y110770D01*
X1213068Y110860D01*
X1213234Y110946D01*
X1213402Y111028D01*
X1213572Y111106D01*
X1213744Y111180D01*
X1213918Y111249D01*
X1214093Y111315D01*
X1214270Y111375D01*
X1214448Y111432D01*
X1214628Y111484D01*
X1214808Y111532D01*
X1214990Y111575D01*
X1215173Y111614D01*
X1215357Y111648D01*
X1215542Y111678D01*
X1215727Y111703D01*
X1215913Y111723D01*
X1216099Y111739D01*
X1216286Y111751D01*
X1216473Y111758D01*
X1216660Y111760D01*
X1216847Y111758D01*
X1217034Y111751D01*
X1217221Y111739D01*
X1217407Y111723D01*
X1217593Y111703D01*
X1217778Y111678D01*
X1217963Y111648D01*
X1218147Y111614D01*
X1218330Y111575D01*
X1218512Y111532D01*
X1218692Y111484D01*
X1218872Y111432D01*
X1219050Y111375D01*
X1219227Y111315D01*
X1219402Y111249D01*
X1219576Y111180D01*
X1219748Y111106D01*
X1219918Y111028D01*
X1220086Y110946D01*
X1220252Y110860D01*
X1220416Y110770D01*
X1220577Y110676D01*
X1220737Y110578D01*
X1220893Y110476D01*
X1221048Y110370D01*
X1221199Y110260D01*
X1221348Y110147D01*
X1221494Y110030D01*
X1221637Y109910D01*
X1221777Y109786D01*
X1221914Y109659D01*
X1222048Y109528D01*
X1222179Y109394D01*
X1222306Y109257D01*
X1222430Y109117D01*
X1222550Y108974D01*
X1222667Y108828D01*
X1222780Y108679D01*
X1222890Y108528D01*
X1222996Y108373D01*
X1223098Y108217D01*
X1223196Y108057D01*
X1223290Y107896D01*
X1223380Y107732D01*
X1223466Y107566D01*
X1223548Y107398D01*
X1223626Y107228D01*
X1223700Y107056D01*
X1223769Y106882D01*
X1223835Y106707D01*
X1223895Y106530D01*
X1223952Y106352D01*
X1224004Y106172D01*
X1224052Y105992D01*
X1224095Y105810D01*
X1224134Y105627D01*
X1224168Y105443D01*
X1224198Y105258D01*
X1224223Y105073D01*
X1224243Y104887D01*
X1224259Y104701D01*
X1224271Y104514D01*
X1224278Y104327D01*
X1224280Y104140D01*
X1224278Y103953D01*
X1224271Y103766D01*
X1224259Y103579D01*
X1224243Y103393D01*
X1224223Y103207D01*
X1224198Y103022D01*
X1224168Y102837D01*
X1224134Y102653D01*
X1224095Y102470D01*
X1224052Y102288D01*
X1224004Y102108D01*
X1223952Y101928D01*
X1223895Y101750D01*
X1223835Y101573D01*
X1223769Y101398D01*
X1223700Y101224D01*
X1223626Y101052D01*
X1223548Y100882D01*
X1223466Y100714D01*
X1223380Y100548D01*
X1223290Y100384D01*
X1223196Y100223D01*
X1223098Y100063D01*
X1222996Y99907D01*
X1222890Y99752D01*
X1222780Y99601D01*
X1222667Y99452D01*
X1222550Y99306D01*
X1222430Y99163D01*
X1222306Y99023D01*
X1222179Y98886D01*
X1222048Y98752D01*
X1221914Y98621D01*
X1221777Y98494D01*
X1221637Y98370D01*
X1221494Y98250D01*
X1221348Y98133D01*
X1221199Y98020D01*
X1221048Y97910D01*
X1220893Y97804D01*
X1220737Y97702D01*
X1220577Y97604D01*
X1220416Y97510D01*
X1220252Y97420D01*
X1220086Y97334D01*
X1219918Y97252D01*
X1219748Y97174D01*
X1219576Y97100D01*
X1219402Y97031D01*
X1219227Y96965D01*
X1219050Y96905D01*
X1218872Y96848D01*
X1218692Y96796D01*
X1218512Y96748D01*
X1218330Y96705D01*
X1218147Y96666D01*
X1217963Y96632D01*
X1217778Y96602D01*
X1217593Y96577D01*
X1217407Y96557D01*
X1217221Y96541D01*
X1217034Y96529D01*
X1216847Y96522D01*
X1216660Y96520D01*
X1216473Y96522D01*
X1216286Y96529D01*
X1216099Y96541D01*
X1215913Y96557D01*
X1215727Y96577D01*
X1215542Y96602D01*
X1215357Y96632D01*
X1215173Y96666D01*
X1214990Y96705D01*
X1214808Y96748D01*
X1214628Y96796D01*
X1214448Y96848D01*
X1214270Y96905D01*
X1214093Y96965D01*
X1213918Y97031D01*
X1213744Y97100D01*
X1213572Y97174D01*
X1213402Y97252D01*
X1213234Y97334D01*
X1213068Y97420D01*
X1212904Y97510D01*
X1212743Y97604D01*
X1212583Y97702D01*
X1212427Y97804D01*
X1212272Y97910D01*
X1212121Y98020D01*
X1211972Y98133D01*
X1211826Y98250D01*
X1211683Y98370D01*
X1211543Y98494D01*
X1211406Y98621D01*
X1211272Y98752D01*
X1211141Y98886D01*
X1211014Y99023D01*
X1210890Y99163D01*
X1210770Y99306D01*
X1210653Y99452D01*
X1210540Y99601D01*
X1210430Y99752D01*
X1210324Y99907D01*
X1210222Y100063D01*
X1210124Y100223D01*
X1210030Y100384D01*
X1209940Y100548D01*
X1209854Y100714D01*
X1209772Y100882D01*
X1209694Y101052D01*
X1209620Y101224D01*
X1209551Y101398D01*
X1209485Y101573D01*
X1209425Y101750D01*
X1209368Y101928D01*
X1209316Y102108D01*
X1209268Y102288D01*
X1209225Y102470D01*
X1209186Y102653D01*
X1209152Y102837D01*
X1209122Y103022D01*
X1209097Y103207D01*
X1209077Y103393D01*
X1209061Y103579D01*
X1209049Y103766D01*
X1209042Y103953D01*
X1209040Y104140D01*
D20*
X1216660Y104140D03*
D21*
X48260Y45720D03*
X48260Y454660D03*
X1216660Y711200D03*
X1216660Y53340D03*
D20*
X149860Y457200D03*
X301625Y355600D03*
X637540Y604520D03*
X127000Y254000D03*
X320675Y254000D03*
X1079500Y254000D03*
X889000Y254000D03*
X698500Y254000D03*
X508000Y254000D03*
X320675Y358775D03*
M02*
